<svg xmlns="http://www.w3.org/2000/svg" id="Ebene_2" data-name="Ebene 2" viewBox="0 0 545.6 178.8"><defs><style>.cls-1{fill:#36367A}</style></defs><g id="Ebene_1-2" data-name="Ebene 1"><path d="M70 41.3 28 83.8V41.3H0v96.3h28V88h.3l39.2 49.6h36.3L58.6 84.5l45.2-43.2H70zM146.3 119.7h25.1c2.2 0 4.3-.2 6.1-.5 1.9-.3 3.5-.9 4.9-1.7 1.4-.8 2.5-1.9 3.3-3.4.8-1.4 1.2-3.2 1.2-5.3s-.4-3.6-1.3-5.1c-.8-1.4-1.9-2.6-3.3-3.5-1.3-.9-2.9-1.5-4.6-1.9-1.7-.4-3.4-.6-5.1-.6h-26.4v22h.1Zm0-39.1h17.5c6 0 10.7-.9 14.1-2.6 3.3-1.7 5-4.5 5-8.2 0-4-1.4-6.8-4.3-8.3-2.9-1.6-7-2.3-12.5-2.3h-19.7v21.4h-.1Zm-27.2-39.3h56.7c6.4 0 11.9.7 16.4 2s8.2 3.1 11.1 5.3c2.9 2.2 5 4.7 6.3 7.6 1.3 2.9 2 5.9 2 8.9 0 5.5-1.8 10.3-5.5 14.3s-8.6 6.8-14.9 8.3v.3c3.7.3 7.1 1.2 10.1 2.4 3 1.3 5.6 2.9 7.7 4.9 2.1 2 3.8 4.3 4.9 7 1.2 2.7 1.7 5.5 1.7 8.5 0 3.3-.6 6.5-1.9 9.7-1.3 3.2-3.5 6.1-6.5 8.6-3.1 2.5-7.2 4.6-12.3 6.2-5.1 1.6-11.5 2.4-19.2 2.4h-56.6V41.3ZM257.4 119.7h25.1c2.2 0 4.3-.2 6.1-.5 1.9-.3 3.5-.9 4.9-1.7 1.4-.8 2.5-1.9 3.3-3.4.8-1.4 1.2-3.2 1.2-5.3s-.4-3.6-1.3-5.1c-.8-1.4-1.9-2.6-3.3-3.5-1.3-.9-2.9-1.5-4.6-1.9s-3.4-.6-5.1-.6h-26.4v22h.1Zm0-39.1h17.5c6 0 10.7-.9 14.1-2.6 3.3-1.7 5-4.5 5-8.2 0-4-1.4-6.8-4.3-8.3-2.9-1.6-7-2.3-12.5-2.3h-19.7v21.4h-.1Zm-27.2-39.3h56.7c6.4 0 11.9.7 16.4 2s8.2 3.1 11.1 5.3 5 4.7 6.3 7.6c1.3 2.9 2 5.9 2 8.9 0 5.5-1.8 10.3-5.5 14.3s-8.6 6.8-14.9 8.3v.3c3.7.3 7.1 1.2 10.1 2.4 3 1.3 5.6 2.9 7.7 4.9s3.8 4.3 4.9 7c1.2 2.7 1.7 5.5 1.7 8.5 0 3.3-.6 6.5-1.9 9.7s-3.5 6.1-6.5 8.6c-3.1 2.5-7.2 4.6-12.3 6.2-5.1 1.6-11.5 2.4-19.1 2.4h-56.8V41.3h.1ZM456.2 6.5c-45.7 0-83 37.2-83 83s37.2 82.9 83 82.9 83-37.2 83-82.9c-.1-45.8-37.3-83-83-83m0 172.3c-49.3 0-89.4-40.1-89.4-89.4S406.9 0 456.2 0s89.4 40.1 89.4 89.4-40.1 89.4-89.4 89.4" class="cls-1"/><path d="M530.9 89.4c0-41.2-33.5-74.6-74.7-74.6s-74.7 33.4-74.7 74.6h43.3c2.3-19.4 16.3-32.1 36-32.1 11.9 0 22.6 5 30.2 13 5.3 5.2 9.1 11.7 11 19 .5 1.8.9 3.7 1.1 5.6.1 1.6.2 3.3.3 4.9v.4c0 31.9-26.6 57.7-59.4 57.7-15.3 0-29.2-5.7-39.7-14.9 13.4 13 31.7 21 51.9 21 41.2.1 74.7-33.3 74.7-74.6" class="cls-1"/><path d="M433.8 89.4c0 12 10 21.7 22.3 21.7s22.3-9.7 22.3-21.7-10-21.7-22.3-21.7-22.3 9.7-22.3 21.7" class="cls-1"/></g></svg>