<svg xmlns="http://www.w3.org/2000/svg" viewBox="0 0 141.78 74.61"><defs><style>.cls-1{fill:#231815}.cls-2{fill:#0095d7}</style></defs><title>アセット 2</title><g id="レイヤー_2" data-name="レイヤー 2"><g id="レイヤー_1-2" data-name="レイヤー 1"><path class="cls-1" d="M70.89 34.74l15.37-16.68v9.33h13.95V0H85.85L70.89 16.86 55.94 0H41.57v27.39h13.95v-9.33l15.37 16.68z"/><path class="cls-2" d="M41.57 34.74h58.64v12.51H41.57z"/><path class="cls-1" d="M23.33 59.07h4.17v15.29h-4.17zm58.05 15.29h4.17V59.07h-4.17zM31.06 62.69h4.3v11.67h4.27V62.69h4.2v-3.62H31.06zm68.56 5.53h6v-3.35h-6V62.5h8.66v-3.43H95.56v15.29h12.8v-3.75h-8.74zm23.67 1.9l3.81 4.24h-4.7L121.2 73l-1 1.38h-5.12c-1.88-.06-3.23-1.21-3.23-3.68v-2.18l2.78-3.09-1-1.19V62a3.14 3.14 0 0 1 3.1-3.06 32.23 32.23 0 0 1 4.17 0 3.06 3.06 0 0 1 3 3.06v1.42l-3.47 1.41v-2.54h-3.08v1.2l3.7 4.12 1.39-1.9h4.07zm-6.35-2l-1.13 1.26v1.49h2.89l.28-.39zm-60.56-9.21a46.45 46.45 0 0 0-5.66 0 3.46 3.46 0 0 0-3.44 3.72v2a3.45 3.45 0 0 0 3.44 3.61H56v2.62h-5.7v-2l-4 1.48v.5a3.86 3.86 0 0 0 3.89 3.67c2.19.08 4 .1 6.16 0a3.48 3.48 0 0 0 3.44-3.67v-2.46a3.37 3.37 0 0 0-3.25-3.61h-5.32v-2.48H56v2l3.85-1.52v-.22a3.45 3.45 0 0 0-3.47-3.64zm82 0a46.62 46.62 0 0 0-5.67 0 3.46 3.46 0 0 0-3.43 3.72v2a3.44 3.44 0 0 0 3.43 3.61H138v2.62h-5.48v-2l-4 1.48v.5a3.86 3.86 0 0 0 3.89 3.67c2.19.08 3.72.1 5.94 0a3.47 3.47 0 0 0 3.43-3.67v-2.46a3.36 3.36 0 0 0-3.24-3.61h-5.35v-2.48h4.75v2l3.84-1.52v-.22a3.44 3.44 0 0 0-3.43-3.64zm-65.5 12H68V59.07h-4.15v11.8a3.48 3.48 0 0 0 3.32 3.66c1.84.1 4.69.07 6.53 0a3.5 3.5 0 0 0 3.3-3.66v-11.8h-4.15zm-54-11.79h-4L9.48 70 4 59.07H0v15.29h4v-6.85l3.49 6.85h4l3.48-6.85v6.85h4z"/></g></g></svg>