<svg viewBox="0 0 168 78" height="78" width="168" xmlns="http://www.w3.org/2000/svg"><path fill="#000" d="m145.59 69.7h.03c1.22 0 2.26.84 1.85 2.92l-.03.16c-.44 2.2-1.94 3.15-3.38 3.15-.83 0-1.37-.34-1.59-.8l-.03-.08-.62 2.96h-1.06l1.5-7.3.03-.11.09-.51.07-.33h1.13l-.19 1.01c.65-.82 1.49-1.02 2.03-1.06h.19zm17.47 0 .88 4.65 2.88-4.65h1.19l-3.94 5.98-1.31 2.2h-1.12l1.38-2.26-1.19-5.91h1.25zm-71.84-2.52-.67 3.15c.52-.53 1.2-.69 1.62-.73h.15s.17-.02.17-.02h.06c1.13 0 1.69.63 1.94 1.26.19.57.13 1.2 0 1.82-.25 1.13-.63 1.82-1.25 2.33-.77.65-1.48.8-1.92.82h-.13s-.12 0-.12 0h-.14c-.43-.07-1.05-.27-1.44-1l-.25.88h-2.06l.38-1.45 1.5-7.05h2.17zm35.96 2.39c1.81 0 2.31 1.09 2.34 2.14v.18c0 .12 0 .23-.02.35l-.02.17-.03.16-.02.08c-.38 1.76-1.62 3.15-3.63 3.15s-2.62-1.38-2.25-3.08c.31-1.45 1.31-3.15 3.62-3.15zm-28-1.64-.38 1.76h1.44v.06l-.31 1.45h-1.44l-.44 2.08-.04.25-.02.15c-.05.47.04.67.69.67h.15c.12 0 .23-.02.41-.06l-.31 1.38-.21.04-.16.03-.18.02-.21.02h-.24c-.13.02-.27.02-.43.02-1.75 0-2-.57-1.75-1.76l.63-2.83h-1.13l.31-1.45h1.13l.19-.94 2.31-.88zm12.19 1.57h.2c.63.03 1.54.2 1.99.88.32.49.32.93.27 1.29l-.02.16h-2.19v-.06c.12-.57 0-1.01-.56-1.01-.78 0-1.16.75-1.35 1.76l-.02.13c-.31 1.51 0 1.89.56 1.89.61 0 .85-.49.98-.92l.08-.28h2.25c-.31 1.51-1.69 2.45-3.5 2.45s-3.13-1.01-2.62-3.15c.5-2.33 2.31-3.15 3.94-3.15zm40.45 0c.88 0 1.69.25 1.88.88.1.29.08.51.04.71l-.04.17-.62 2.83v.03s-.02.1-.02.1l-.13.66-.04.24-.04.24c-.01.08-.02.16-.03.24h-.94v-.18c0-.24.01-.45.06-.7-.62.84-1.29 1.02-1.79 1.06h-.14s-.13 0-.13 0c-1.38 0-1.94-.75-1.69-1.76.12-.5.44-1.26 1.38-1.76.55-.3 1.26-.36 1.78-.37h.35c.31 0 .44 0 .81.06l.12-.68c.05-.3.06-.48-.06-.64-.19-.31-.62-.38-.94-.38-.85 0-1.17.44-1.3.76l-.04.1-.02.08-.02.07h-1.13l.12-.3c.1-.25.24-.52.51-.83.56-.5 1.44-.63 2.06-.63zm-47.7-.06c1.63 0 2.25.69 2.5 1.51.12.5.12 1.07-.12 2.14h-4.25l-.03.17-.02.11v.12c-.05.45.05 1.04.86 1.04.56 0 1-.31 1.19-.88h2.06c-.5 1.51-2 2.08-3.5 2.08-2.06 0-2.94-1.07-2.5-3.02.44-2.01 1.62-3.27 3.81-3.27zm16.88.06h.14c.42.02 1.15.14 1.48.75.27.43.26.86.21 1.18l-.03.15h-1.13v-.06s.03-.08.03-.08v-.09c.03-.39-.07-1.02-.96-1.02-.94 0-1.44.69-1.71 1.31l-.07.18-.03.09-.06.16-.05.16-.08.3-.04.22c-.01.07-.03.15-.03.22l-.03.22c-.08.92.14 1.67 1.1 1.67s1.38-.69 1.56-1.26h1.13c-.31 1.13-1.38 2.14-2.81 2.14h-.13s-.17-.01-.17-.01c-.45-.04-1.1-.19-1.45-.74l-.07-.13s-.05-.09-.07-.14l-.06-.16c-.15-.41-.23-.98-.05-1.83.5-2.45 2.19-3.21 3.38-3.21zm-36.63-.13h.19s.22.02.22.02c.56.04 1.32.19 1.71.68.31.38.31.94.19 1.57l-.56 2.77-.03.21-.03.18-.03.17c-.02.19-.04.38-.03.57h-2.13v-.16c.01-.18.04-.4.13-.65l-.17.17c-.38.36-.93.77-1.95.77-1.39 0-1.9-.77-1.71-1.73l.02-.1c.31-1.64 1.94-2.2 4.44-2.08l.03-.16.03-.15.02-.16c.04-.44-.06-.79-.57-.79-.44 0-.88.25-1 .88h-2.13l.04-.17.04-.14c.1-.26.28-.61.66-.96.56-.5 1.5-.75 2.63-.75zm-21.38-2.26 1.63 8.56h-1.25l-.44-2.2h-3.94l-1.38 2.2h-1.19l5.31-8.56h1.25zm75.45 2.45h.15c.83.04 1.83.45 1.57 1.94l-.84 4.1h-1.12l.81-3.77c.12-.5.06-.75 0-.88-.12-.25-.44-.5-1-.5s-.98.28-1.23.49l-.11.1-.04.04c-.31.38-.5 1.01-.5 1.26l-.69 3.33h-1.12l.81-3.9c.12-.75-.12-1.32-1-1.32-.51 0-.91.24-1.17.43l-.23.17s-.02.02-.04.03c-.31.31-.44.82-.5 1.2l-.69 3.33h-1.12l1.06-5.1.12-.82h1.13l-.19.88c.58-.73 1.21-.94 1.69-.99h.16s.21-.02.21-.02c1.08 0 1.44.47 1.6.88l.04.11.03.1v.05s.09-.09.09-.09l.1-.11.12-.12c.36-.36.98-.81 1.9-.81zm-66.51-2.45-.5 6.23 2.69-6.23h2.88l-.06 6.16 2.06-6.16h2.13l-3.25 8.56h-2.81l-.12-6.29-2.88 6.29h-2.81l.38-8.56h2.31zm87 2.45h.1s.11.01.11.01l.12.02.13.02h.06s.13.05.13.05c.6.18 1.26.66 1 1.91l-.88 4.03h-1.12l.81-3.77.03-.19c.04-.31.05-.61-.15-.82-.25-.25-.56-.38-.94-.38-.81 0-1.69.57-1.94 1.76l-.75 3.4h-1.13l1.19-5.22.12-.69h1.12l-.19.94.08-.11.07-.09.09-.1c.29-.32.82-.72 1.73-.77h.2zm-13.79.88c-1.24 0-1.82.95-2.08 1.68l-.05.16-.05.2-.04.18-.02.12s0 .03 0 .05l-.03.13-.03.14-.03.15-.02.16v.08s-.02.16-.02.16c-.02.68.23 1.38 1.31 1.38h.14c.47-.03.91-.23 1.24-.57.49-.5.74-1.23.84-1.66l.03-.16c.25-1.07.12-2.2-1.19-2.2zm-18.07-.13h-.06s-.14.01-.14.01c-.68.08-1.7.57-2.08 2.15l-.04.17c-.31 1.26 0 2.33 1.25 2.33.81 0 1.94-.63 2.31-2.39.31-1.45-.19-2.26-1.25-2.26zm25.26 2.39h-.87s-.16 0-.16 0h-.17s-.19.04-.19.04c-.65.09-1.45.36-1.62 1.15v.1c-.05.38.08.91 1 .91.56 0 1.06-.25 1.38-.63.27-.33.4-.65.55-1.27l.07-.3zm-68.01.13h-.3s-.2 0-.2 0h-.2c-.62.06-1.16.23-1.3.87-.06.44.13.82.63.82.25 0 .69-.13 1-.57.25-.38.38-.88.38-1.13zm7.25-2.01c-.79 0-1.2.76-1.41 1.33l-.06.16-.1.33-.03.2-.02.13v.14s-.02.14-.02.14c-.02.52.11 1.15.82 1.15s1.05-.55 1.26-1.06l.06-.17.08-.24.11-.37.04-.21.03-.15.02-.16v-.15c.04-.54-.08-1.09-.77-1.09zm-29.51-2.52-2.5 4.15h3.19zm41.76 2.33c-.79 0-1.11.59-1.24.99l-.04.12v.05s-.03.09-.03.09h2.13v-.08s.03-.09.03-.09v-.11s.01-.06.01-.06v-.12c-.01-.38-.17-.81-.85-.81z"></path><path fill="#000" d="m156.9 45.6h.2c.59.03 1.42.18 1.84.82.27.37.28.77.24 1.11l-.02.18-.03.16h-1.19c.19-1.01-.69-1.26-1.5-1.26-1.12 0-1.94.5-2.12 1.32-.11.69.19.96 1.01 1.2l1.15.31.44.13.33.1.14.05.12.04.1.04.09.04.08.04.08.05.12.08.08.06c.56.41.58 1.02.54 1.41l-.02.13-.02.1c-.31 1.45-1.69 2.58-3.81 2.58h-.18c-.66-.03-1.74-.2-2.19-.94-.23-.46-.22-.92-.18-1.31l.05-.39h1.19v.06l-.03.15-.02.11v.11s-.02.06-.02.06v.11c.01.53.31 1.1 1.69 1.1 1.63 0 2.15-1 2.24-1.47v-.04c.15-.71-.2-.99-.86-1.19l-.2-.06-.21-.05-.35-.08-.81-.22-.26-.07s-.08-.02-.12-.04l-.21-.07c-.3-.1-.5-.21-.65-.36-.56-.44-.62-1.07-.5-1.64.36-1.65 2.02-2.41 3.55-2.45h.23zm-60.85-.06c2.27 0 3.39 1.39 2.85 4.11l-.04.17c-.44 2.2-1.81 4.47-4.75 4.47-2.55 0-3.2-1.65-2.93-3.64l.04-.25.05-.25.03-.13c.18-.9.58-2.2 1.59-3.19l.16-.15c1.06-.94 2.25-1.13 3-1.13zm8.31.19c1.19 0 2.69.5 2.44 2.39h-1.19v-.26s0-.1 0-.1v-.11s-.03-.11-.03-.11c-.08-.43-.38-.94-1.47-.94-1.54 0-2.34 1.23-2.77 2.43l-.08.24-.07.24-.06.23-.08.33-.04.22-.04.22-.03.22v.11s-.03.22-.03.22c-.07 1.22.28 2.28 1.76 2.28.5 0 1-.13 1.44-.5.25-.21.39-.45.47-.64l.05-.13.04-.11h1.25c-.5 1.64-2.19 2.33-3.56 2.33-2.4 0-2.84-1.73-2.71-3.25l.02-.2.03-.2.05-.29.04-.18.02-.09c.02-.07.03-.15.05-.22l.06-.23.03-.12.08-.24c.03-.08.06-.16.09-.24l.1-.24c.63-1.51 1.89-3.04 4.16-3.04zm30.98 0h.21c.61.04 1.42.19 1.95.88.32.44.32.87.27 1.19l-.02.14h-1.25v-.06c.06-.75-.5-1.32-1.56-1.32-.75 0-1.5.19-2 .69-.88.82-1.25 1.89-1.44 2.64-.12.69-.25 1.89.19 2.64.44.63 1.19.82 2 .82.5 0 .91-.05 1.23-.11l.23-.05.35-.08h.07s.5-2.47.5-2.47h-1.88l.19-.94h3.06l-.88 4.09-.07.03-.28.09-.22.06c-.08.02-.17.04-.25.06l-.28.06c-.54.11-1.2.2-1.96.2-1.5 0-2.31-.44-2.75-1.01-.62-.82-.75-2.01-.5-3.15l.04-.18.06-.2.07-.23.09-.26c.35-.94 1.02-2.19 2.3-2.97.66-.4 1.37-.52 1.9-.55h.21s.18-.01.18-.01h.25zm-65.8 0 1.13.06-1.06 5.16c-.13.63-.11 1-.04 1.25l.04.11.04.1.02.05c.38.69 1.13.82 1.69.82 1.69 0 2.32-.99 2.58-1.75l.05-.15.04-.14.05-.19 1.1-5.25h1.13l-1.06 5.1-.11.42-.06.2c-.16.47-.42 1.05-.95 1.58-.8.81-1.8 1.05-2.49 1.11h-.2s-.25.02-.25.02h-.18c-.74-.03-1.88-.26-2.38-1.19l-.06-.13s-.04-.07-.05-.11l-.05-.12c-.12-.36-.17-.87.04-1.84l1.06-5.1zm15.69.06h2.94c1 0 1.56.13 1.94.63.29.29.42.75.28 1.37l-.03.14c-.23 1.03-.88 1.46-1.37 1.7l-.14.06-.3.12.09.03.1.03.11.04.11.05.11.06c.46.25.92.77.66 1.87-.21.96-.83 1.52-1.2 1.78l-.17.11c-.58.35-1.21.37-1.79.38h-3.08l1.75-8.37zm-16.19-.06-.19 1.01h-2.88l-1.56 7.36h-1.06l1.56-7.36h-2.75l.19-1.01zm51.2.06 1.56 8.3h-1.25l-.44-2.14h-3.81l-1.38 2.14h-1.19l5.25-8.3h1.25zm26.32 0h3.13s.25 0 .25 0c.45.02 1 .1 1.36.37.56.38.69 1.01.56 1.7-.12.57-.44 1.13-.88 1.45-.36.31-.69.45-.93.53l-.13.04c.75.19 1 .57.94 1.57l-.02.27-.06.73c-.04.54-.06 1.04.02 1.64h-1.25c-.02-.25-.02-.5 0-.75l.02-.43.03-.43c.01-.21.02-.41.02-.58v-.11s.02-.21.02-.21c.04-.94-.28-1.25-1.52-1.25h-1.44l-.81 3.77h-1.13l1.81-8.3zm-22.38 0h3.13s.25 0 .25 0c.45.02 1 .1 1.36.37.56.38.69 1.01.56 1.7-.12.57-.44 1.13-.88 1.45-.36.31-.69.45-.93.53l-.14.04c.75.19 1 .57.94 1.57l-.02.27-.06.73c-.04.54-.06 1.04.02 1.64h-1.25c-.02-.25-.02-.5 0-.75l.02-.43.03-.43c.01-.21.02-.41.02-.58v-.11s.03-.21.03-.21c.04-.94-.28-1.25-1.53-1.25h-1.44l-.81 3.77h-1.12l1.81-8.3zm-46.45 0h3.13s.25 0 .25 0c.45.02 1 .1 1.36.37.56.38.69 1.01.56 1.7-.12.57-.44 1.13-.88 1.45-.36.31-.69.45-.93.53l-.13.04c.75.19 1 .57.94 1.57l-.02.27-.06.73c-.04.54-.06 1.04.02 1.64h-1.25c-.02-.25-.02-.5 0-.75l.02-.43.03-.43c.01-.21.02-.41.02-.58v-.11s.02-.21.02-.21c.04-.94-.28-1.25-1.53-1.25h-1.44l-.81 3.77h-1.06l1.75-8.3zm67.39 0-.19 1.01h-4.06l-.56 2.58h3.88l-.19.94h-3.88l-.56 2.77h4.13l-.19 1.01h-5.25l1.69-8.3h5.19zm-35.32 0-.75 3.59h3.94l.75-3.59h1.13l-1.75 8.3h-1.12l.81-3.77h-3.94l-.81 3.77h-1.13l1.75-8.3zm-13.94.75c-2.13 0-3 1.7-3.38 3.4-.18.89-.24 1.78.12 2.51l.07.14c.38.57 1 .75 1.69.75s1.38-.19 2-.75c.67-.62 1.01-1.54 1.19-2.19l.06-.23.07-.28.03-.13.04-.26.03-.25c.18-1.57-.26-2.69-1.91-2.69zm-8.5 3.77h-2l-.63 2.89h1.94c.88 0 1.75-.5 1.94-1.45.19-.82-.25-1.45-1.25-1.45zm31.94-3.4-2.44 4.09h3.13zm28.13-.13-.56 2.58h2.02s.17-.02.17-.02c.2-.02.44-.05.63-.12l.11-.05c.19-.06.62-.38.81-1.07.21-.88-.25-1.17-.72-1.27l-.16-.03-.16-.02h-.12s-.11 0-.11 0h-1.92zm-22.32 0-.56 2.58h2.03s.17-.02.17-.02c.2-.02.44-.05.63-.12l.11-.05c.19-.06.63-.38.81-1.07.21-.88-.25-1.17-.72-1.27l-.16-.03-.16-.02h-.12s-.11 0-.11 0h-1.91zm-46.45 0-.56 2.58h2.02s.16-.02.16-.02c.2-.02.44-.05.64-.12l.11-.05c.19-.06.63-.38.81-1.07.21-.88-.25-1.17-.72-1.27l-.16-.03-.16-.02h-.12s-.11 0-.11 0zm9.26-.06h-1.76l-.56 2.58h1.89s.14-.02.14-.02l.15-.02c.53-.09 1.22-.37 1.44-1.28.17-.86-.25-1.13-.75-1.22l-.14-.02h-.14s-.07-.02-.07-.02h-.21zm24.68-23.46c3.25 0 5 2.52 4 7.23-1.06 5.1-4.06 6.92-6.94 6.92-1.5 0-2.81-.44-3.63-1.64l-1.31 6.35h-6.44l3.94-18.49h6.06l-.25 1.57c1.44-1.51 3.06-1.95 4.56-1.95zm21.19 0c5.06 0 6.88 2.58 5.88 7.36l-.19.88h-9.19l-.06.38c-.31 1.57.06 2.2 1.31 2.2.69 0 1.5-.44 1.88-1.38h5.63v.06c-1.12 3.02-3.75 4.72-8.75 4.72h-.3s-.15 0-.15 0h-.29c-.1-.02-.2-.03-.29-.04l-.29-.03c-3.22-.39-5.55-2.32-4.55-7.1 1-4.59 4.56-7.05 9.38-7.05zm-39.5-.06h.18c4.82 0 6.27 1.44 5.85 4.17l-.04.27-.03.14-1.97 9.2h-5.63l.12-1.26c-1.19 1.26-2.69 1.7-4.13 1.7-2.69 0-4.31-1.45-3.75-4.09.68-3.28 3.52-4.61 8.37-4.65h1.01s.25-1.39.25-1.39c.13-.69-.12-1.07-1-1.07-.81 0-1.25.25-1.56 1.38h-5.31c.8-2.88 3.18-3.98 5.84-4.29l.35-.04c.24-.02.48-.04.72-.05h.36s.36-.02.36-.02zm-17.07-5.41 1.63 11.64h.06l2.44-11.64h6.13l-4.06 19.25h-9.06l-1.56-11.76h-.06l-2.5 11.76h-6.13l4-19.25h9.13zm47.95 5.85-2.81 13.4h-6.44l2.81-13.4zm25.76-.19c.5 0 1.06.06 1.62.38l-1 4.84-.28-.08-.29-.07c-.67-.16-1.36-.24-2.05-.23-1.25 0-1.81.82-2 1.7l-1.5 7.05h-6.44l2.88-13.4h6.25l-.12 1.45c1.19-1.2 2.12-1.64 2.94-1.64zm-57.2 7.74h-.88c-1.63 0-2.21.76-2.36 1.5v.08c-.2.88.17 1.38 1.17 1.38 1.13 0 1.63-.69 1.81-1.82l.25-1.13zm15.63-4.15c-.69 0-1.06.31-1.38.69-.12.19-.25.49-.38.91l-.08.27-.08.3-.09.33-.09.36-.09.4-.21 1.35-.05.36-.05.43c0 .75.38 1.26 1.12 1.26 1 0 1.49-.69 1.86-1.96l.08-.3c.01-.05.03-.11.04-.16l.08-.35.08-.37.12-.6.07-.39.04-.25.03-.24v-.12s.03-.23.03-.23c.07-1.01-.14-1.7-1.07-1.7zm23.75-.44c-1.06 0-1.88.69-2.12 1.95l-.06.19h3.38l.06-.19c.25-1.26-.25-1.95-1.25-1.95zm-6.69-8.81-.88 4.09h-6.44l.88-4.09z"></path><path fill="#245B39" d="m33.26 0c14.25 2.77 25.01 15.35 25.07 30.45 0 17.17-13.82 31.08-30.88 31.08-2.31 0-4.63-.25-6.81-.75l.69-3.33c-12.2-2.78-21.33-13.79-21.33-26.94 0-1.89.19-3.77.56-5.54l3 .63c-.31 1.57-.5 3.21-.5 4.91 0 11.64 8.06 21.39 18.88 23.9.44.06.81.19 1.25.25h.12c.25.06.5.06.75.13.25 0 .44.06.69.06.12.06.31.06.44.06.31 0 .63.06.94.06h2.94c.31 0 .56-.06.81-.06.12 0 .31-.06.44-.06.25 0 .44 0 .69-.06.19 0 .31-.06.5-.06.25-.06.44-.06.69-.13.19 0 .31 0 .5-.06.25 0 .44-.06.69-.13.12-.06.31-.06.44-.13.25-.06.44-.13.69-.19.12-.06.25-.06.38-.13.25-.06.56-.13.81-.25.06 0 .19-.06.25-.06.38-.13.75-.25 1.06-.38l.38-.19c.19-.13.44-.19.63-.31.12-.06.31-.13.44-.19.19-.13.38-.19.56-.31.12-.06.31-.19.44-.25.19-.13.31-.19.5-.31.12-.06.31-.13.44-.25.19-.13.31-.19.5-.31.13-.13.31-.19.44-.31.13-.06.31-.19.44-.31.12-.13.31-.19.44-.31s.31-.25.44-.38c.19-.06.31-.19.44-.31.25-.19.5-.38.75-.63.19-.13.31-.31.5-.44.13-.06.25-.19.38-.31l.44-.44c.06-.13.19-.25.31-.38.19-.13.31-.25.44-.44.13-.13.19-.25.31-.38.12-.19.25-.31.38-.5.06-.13.19-.25.25-.38.12-.13.25-.31.38-.5.06-.06.19-.19.25-.31l.38-.57c.06-.13.12-.19.19-.31.5-.75.94-1.51 1.31-2.33 0-.06.06-.13.06-.19.12-.25.19-.44.31-.69 0-.13.06-.19.12-.31.06-.25.19-.44.25-.69 0-.13.06-.25.12-.38.06-.25.19-.44.25-.69.06-.13.06-.25.13-.38.06-.25.12-.44.19-.69.06-.13.06-.25.12-.38l.19-.75c0-.13.06-.19.06-.31.06-.31.12-.57.19-.82.31-1.51.5-3.15.5-4.78 0-12.02-8.56-22.02-19.88-24.16l1.31-6.35zm-5.88 9.06c11.75 0 21.25 9.56 21.25 21.39 0 1.45-.12 2.83-.31 4.09-1.94 9.81-10.56 17.24-20.88 17.24-1.69 0-3.31-.19-4.88-.57l.63-3.08c1.31.31 2.75.5 4.19.5 8.81 0 16.19-6.35 17.82-14.72l-3.25-.63c.19-.94.31-1.89.31-2.89 0-8.24-6.63-14.91-14.82-14.91-7.19 0-13.19 5.16-14.57 11.95l-6.31-1.26c1.94-9.75 10.5-17.11 20.82-17.11zm1 9.69c.12.06.25.06.38.06h.12c5.75.75 10.19 5.66 10.06 11.64 0 4.34-2.25 8.05-5.69 10.13l-1.5-2.58c2.56-1.51 4.25-4.34 4.25-7.55 0-4.4-3.19-8.05-7.38-8.68l-.69 3.33c-.19-.06-.44-.06-.63-.06-2.94 0-5.31 2.39-5.31 5.35 0 2.45 1.56 4.47 3.75 5.16l-1.31 6.29c-1.5-.38-2.94-1.07-4.13-1.95-.63-.44-1.19-.94-1.69-1.51-.38-.31-.69-.75-.94-1.13-.06 0-.06-.06-.06-.06-.13-.19-.25-.44-.38-.63-.06-.19-.19-.44-.31-.63v-.06c-.12-.19-.19-.44-.31-.63-.06-.06-.06-.13-.06-.13-.19-.44-.38-.88-.5-1.32q-.06-.06-.06-.13c-.06-.25-.13-.44-.19-.69v-.13c-.06-.19-.06-.44-.12-.63v-.13c0-.19-.06-.44-.06-.69v-.88c0-6.48 5.25-11.76 11.69-11.76h1.06z"></path></svg>